<svg width="70" height="70" viewBox="0 0 70 70" fill="none" xmlns="http://www.w3.org/2000/svg">
<mask id="mask0_698_524" style="mask-type:alpha" maskUnits="userSpaceOnUse" x="0" y="0" width="70" height="70">
<rect width="70" height="70" rx="10" fill="#D9D9D9"/>
</mask>
<g mask="url(#mask0_698_524)">
<rect width="70" height="70" rx="10" fill="#007CF0"/>
<g clip-path="url(#clip0_698_524)">
<path d="M47.8476 36.085L46.9102 39.0369L46.9045 39.035L40.3656 59.6172C26.5708 45.6977 10.8682 46.5477 10.8682 46.5477L17.4619 25.7911L17.4582 25.7844L23.3085 7.36935C23.3085 7.36935 42.1023 6.24074 52.9109 20.1281L47.8438 36.0793L47.8476 36.086V36.085Z" fill="#30A9FF"/>
<path d="M52.9165 20.129L47.8475 36.085L47.8438 36.0793L52.9109 20.1281L52.9165 20.129Z" fill="#25AD5F"/>
<path d="M46.9093 39.0368L40.3694 59.6238C40.3694 59.6238 40.3637 59.6219 40.3656 59.6172L46.9045 39.0349L46.9102 39.0368H46.9093Z" fill="#25AD5F"/>
<path d="M40.3659 59.6172L39.4267 62.5737C23.6531 48.0231 6 49.1763 6 49.1763L12.8624 27.5763L12.8567 27.5744L18.5443 9.67198C18.5443 9.67198 20.0899 9.51563 22.5965 9.61134L17.4585 25.7862L17.4622 25.7929L10.8685 46.5495C10.8685 46.5495 26.5711 45.6986 40.3659 59.6191V59.6172Z" fill="#006BED"/>
<path d="M51.9782 23.0809L47.8475 36.0851L47.8438 36.0794L51.9744 23.0752L51.9782 23.0809Z" fill="#25AD5F"/>
<path d="M84.4342 26.8589L78.5839 45.275L78.5773 45.2778L71.9835 66.0344C71.9835 66.0344 59.6605 56.2474 40.3711 59.6229L52.9183 20.129C69.756 15.0564 84.4361 26.8589 84.4361 26.8589H84.4342Z" fill="#30A9FF"/>
<path d="M52.9165 20.129L47.8475 36.085L47.8438 36.0793L52.9109 20.1281L52.9165 20.129Z" fill="#25AD5F"/>
<path d="M87.0003 31.4985L81.3127 49.4009L81.307 49.399L74.4446 70.9991C74.4446 70.9991 60.7037 59.8361 39.4326 62.5747L40.37 59.6229C59.6594 56.2475 71.9824 66.0345 71.9824 66.0345L78.5762 45.2778L78.5828 45.275L83.7209 29.1001C85.8274 30.4751 86.9984 31.4976 86.9984 31.4976L87.0003 31.4985Z" fill="#006BED"/>
<path d="M48.9588 32.901L48.0621 35.724L48.0573 35.7221L41.8041 55.406C29.6419 42.4217 15.498 43.5144 15.498 43.5144L21.8043 23.6636L21.8005 23.658L27.3954 6.04457C27.3954 6.04457 44.3258 4.63261 53.8017 17.6387L48.955 32.8944L48.9588 32.9001V32.901Z" fill="#5FBCFF"/>
</g>
</g>
<defs>
<clipPath id="clip0_698_524">
<rect width="81" height="65" fill="white" transform="translate(6 6)"/>
</clipPath>
</defs>
</svg>
