<svg width="70" height="70" viewBox="0 0 70 70" fill="none" xmlns="http://www.w3.org/2000/svg">
<mask id="mask0_698_751" style="mask-type:alpha" maskUnits="userSpaceOnUse" x="0" y="0" width="70" height="70">
<rect width="70" height="70" rx="10" fill="#00D74F"/>
</mask>
<g mask="url(#mask0_698_751)">
<rect width="70" height="70" rx="10" fill="#008000"/>
<g clip-path="url(#clip0_698_751)">
<path d="M88.8462 12H21.1538C19.412 12 18 13.3665 18 15.0522V57.9478C18 59.6335 19.412 61 21.1538 61H88.8462C90.588 61 92 59.6335 92 57.9478V15.0522C92 13.3665 90.588 12 88.8462 12Z" fill="#00A300"/>
<path d="M88.8462 11.3592H21.1538C19.4197 11.3592 18 12.7597 18 14.4729V54.2329H92V14.4729C92 12.7597 90.5803 11.3571 88.8462 11.3571V11.3592Z" fill="#006A00"/>
<path d="M62.6043 61.0222H47.3955V67.6193H62.6043V61.0222Z" fill="#008D00"/>
<path d="M89.4021 14.1158H20.5957V51.1276H89.4021V14.1158Z" fill="#00CA00"/>
<path d="M56.3909 56.075H53.607C52.9929 56.075 52.4951 56.5667 52.4951 57.1734V57.1755C52.4951 57.7822 52.9929 58.274 53.607 58.274H56.3909C57.0049 58.274 57.5027 57.7822 57.5027 57.1755V57.1734C57.5027 56.5667 57.0049 56.075 56.3909 56.075Z" fill="#00CA00"/>
<path d="M68.9096 70V69.6345C68.9096 68.5255 67.9923 67.6193 66.8698 67.6193H43.1297C42.0071 67.6193 41.0898 68.5255 41.0898 69.6345V70H68.9096Z" fill="#00A300"/>
</g>
</g>
<defs>
<clipPath id="clip0_698_751">
<rect width="74" height="59" fill="white" transform="translate(18 11)"/>
</clipPath>
</defs>
</svg>
