<svg width="70" height="70" viewBox="0 0 70 70" fill="none" xmlns="http://www.w3.org/2000/svg">
<mask id="mask0_698_538" style="mask-type:alpha" maskUnits="userSpaceOnUse" x="0" y="0" width="70" height="70">
<rect width="70" height="70" rx="10" fill="#00D74F"/>
</mask>
<g mask="url(#mask0_698_538)">
<rect width="70" height="70" rx="10" fill="#00D74F"/>
<path d="M32.4511 84.4936L33.2818 84.5508L80.6435 80.6596C80.9586 80.6311 81.1807 80.3312 81.1305 79.9885L72.1423 14.389C72.0994 14.0606 71.8057 13.7821 71.4906 13.775L24.2865 12.04C23.7708 12.0757 22.9186 13.0039 22.9615 13.3609L31.7062 83.8725C31.7492 84.2509 32.0142 84.4294 32.4511 84.4936Z" fill="#00B643"/>
<path d="M33.3609 84.5579L81.5462 80.6668C81.8613 80.6382 82.0833 80.3383 82.0332 79.9956L72.959 13.6965C72.9161 13.368 72.6224 13.0896 72.3073 13.0824L24.3583 12.04C24.0003 12.0329 23.7353 12.3185 23.7854 12.6683L32.616 83.9368C32.6662 84.308 33.0028 84.5865 33.3609 84.5579Z" fill="#03FD5F"/>
<path d="M29.3637 29.8606L71.9914 29.725L70.337 17.5661L27.7451 16.9307L29.3637 29.8606Z" fill="#AABE89"/>
<path d="M23.785 12.6754C23.742 12.3185 23.9998 12.0329 24.3579 12.0471L72.3069 13.0895C72.622 13.0967 72.9156 13.3751 72.9586 13.7036L75.3793 31.3886L26.1197 31.5456L23.785 12.6754Z" fill="#00E755"/>
<path d="M71.977 28.9039L29.3709 29.0396L27.917 16.9307L70.4874 17.5661L71.977 28.9039Z" fill="#03FD5F"/>
<path d="M73.1597 40.3203L64.8017 40.5202C64.6227 40.5274 64.458 40.3774 64.4365 40.1918L63.6343 34.1445C63.6129 33.9589 64.2288 33.609 64.4078 33.609L72.2644 33.6875C72.4363 33.6875 72.601 33.8303 72.6225 34.016L73.8687 39.9419C73.8902 40.1204 73.3316 40.3203 73.1597 40.3203Z" fill="#00B643"/>
<path d="M62.631 40.5702L54.0081 40.7772C53.8291 40.7844 53.6572 40.6344 53.6285 40.4417L52.8336 34.3015C52.8121 34.1159 53.4351 33.7589 53.6142 33.7589L61.7358 33.8374C61.9148 33.8374 62.0796 33.9874 62.1011 34.1659L63.3544 40.1775C63.383 40.3631 62.8101 40.5702 62.631 40.5702Z" fill="#00B643"/>
<path d="M51.7737 40.8272L42.8714 41.0414C42.6852 41.0485 42.5062 40.8914 42.4847 40.6987L41.6969 34.4586C41.6754 34.2658 42.2483 33.9374 42.4346 33.9374L50.8856 33.9874C51.0718 33.9874 51.2365 34.1373 51.2652 34.3229L52.5042 40.4416C52.5328 40.6273 51.9527 40.8272 51.7737 40.8272Z" fill="#00B643"/>
<path d="M31.0042 34.0731L39.6916 34.1445C39.8778 34.1445 40.0569 34.2944 40.0784 34.4872L41.2744 40.7273C41.2959 40.9201 40.7516 41.0914 40.5582 41.0986L31.3695 41.3199C31.1761 41.327 30.9971 41.17 30.9756 40.9772L30.2021 34.6372C30.1735 34.4372 30.8109 34.0731 31.0042 34.0731Z" fill="#00B643"/>
<path d="M74.3696 49.2306L65.9973 49.5376C65.8183 49.5448 65.6535 49.3948 65.6321 49.2092L64.8228 43.1262C64.8013 42.9405 64.923 42.7835 65.1021 42.7763L73.4672 42.5479C73.6391 42.5407 73.8038 42.6906 73.8253 42.8691L75.0786 48.8451C75.1001 49.045 74.5415 49.2235 74.3696 49.2306Z" fill="#00B643"/>
<path d="M63.8272 49.6233L55.1899 49.9446C55.0037 49.9517 54.839 49.8018 54.8103 49.609L54.0082 43.426C53.9867 43.2404 54.1156 43.0762 54.2947 43.0762L62.9248 42.8406C63.1038 42.8334 63.2685 42.9834 63.29 43.169L64.5505 49.2306C64.5863 49.4234 64.0062 49.6161 63.8272 49.6233Z" fill="#00B643"/>
<path d="M52.9554 50.0232L44.046 50.3516C43.8598 50.3587 43.6808 50.2088 43.6593 50.016L42.8715 43.7402C42.85 43.5475 42.9789 43.3904 43.1723 43.3833L52.0745 43.1405C52.2607 43.1334 52.4255 43.2833 52.4541 43.4761L53.6931 49.6519C53.7074 49.8375 53.1417 50.016 52.9554 50.0232Z" fill="#00B643"/>
<path d="M32.1002 43.5332L40.8521 43.4475C41.0383 43.4404 41.2174 43.5974 41.2388 43.7902L42.4492 50.0517C42.4707 50.2445 41.9192 50.4373 41.7258 50.4444L32.5228 50.7871C32.3294 50.7942 32.1504 50.6372 32.1217 50.4444L31.3411 44.0615C31.3268 43.8616 31.9069 43.5403 32.1002 43.5332Z" fill="#00B643"/>
<path d="M75.587 58.1981L67.2076 58.6193C67.0286 58.6265 66.8638 58.4837 66.8423 58.298L66.0259 52.1793C66.0044 51.9937 66.1262 51.8366 66.3052 51.8295L74.6775 51.4939C74.8494 51.4868 75.0141 51.6296 75.0356 51.8152L76.3032 57.834C76.3319 58.0125 75.7589 58.1909 75.587 58.1981Z" fill="#00B643"/>
<path d="M64.1351 51.9081C64.3141 51.9009 64.4788 52.0509 64.5075 52.2365L65.768 58.3338C65.7895 58.5194 65.2165 58.7193 65.0375 58.7265L56.393 59.162C56.2068 59.1691 56.0421 59.0264 56.0135 58.8336L55.2113 52.6149C55.1898 52.4221 55.3188 52.2651 55.4978 52.2579L64.1351 51.9081Z" fill="#00B643"/>
<path d="M44.3401 52.7077L53.2567 52.3507C53.4429 52.3436 53.6076 52.4935 53.6363 52.6863L54.8753 58.8907C54.8968 59.0834 54.331 59.2762 54.152 59.2834L45.2211 59.726C45.0348 59.7332 44.8558 59.5832 44.8343 59.3904L44.0393 53.0718C44.0179 52.879 44.1539 52.7148 44.3401 52.7077Z" fill="#00B643"/>
<path d="M33.2604 53.0147L42.0266 52.8005C42.2128 52.7934 42.3918 52.9433 42.4133 53.1361L43.638 59.4333C43.6595 59.6261 43.0937 59.8331 42.9003 59.8403L33.683 60.3044C33.4896 60.3115 33.3105 60.1616 33.2819 59.9616L32.5012 53.5431C32.4869 53.3503 33.067 53.0219 33.2604 53.0147Z" fill="#00B643"/>
<path d="M67.5157 60.9112L75.8952 60.4614C76.067 60.4543 76.2318 60.5971 76.2533 60.7827L77.5281 66.8229C77.5567 67.0085 76.9766 67.2013 76.8047 67.2156L68.4181 67.7511C68.2391 67.7653 68.0744 67.6154 68.0529 67.4298L67.2364 61.2754C67.2078 61.0826 67.3367 60.9184 67.5157 60.9112Z" fill="#00B643"/>
<path d="M56.6938 61.4895L65.3454 61.0254C65.5244 61.0183 65.6891 61.1611 65.7178 61.3538L66.9854 67.4868C67.0069 67.6725 66.434 67.8795 66.2549 67.8867L57.5962 68.4364C57.41 68.4507 57.2452 68.3008 57.2166 68.108L56.4073 61.8536C56.3787 61.668 56.5076 61.5038 56.6938 61.4895Z" fill="#00B643"/>
<path d="M46.0153 61.8964L54.4448 61.6109C54.631 61.6037 54.8029 61.7465 54.8244 61.9393L56.0706 68.1794C56.0921 68.3721 55.5263 68.5649 55.3401 68.5792L46.402 69.1504C46.2158 69.1646 46.0368 69.0147 46.0153 68.8148L45.2131 62.4605C45.1988 62.2677 45.8291 61.9036 46.0153 61.8964Z" fill="#00B643"/>
<path d="M34.3846 62.5533L43.2009 62.2178C43.3942 62.2106 43.5661 62.3606 43.5876 62.5533L44.8123 68.9219C44.8338 69.1147 44.2752 69.2932 44.0818 69.3003L34.8501 69.8858C34.6567 69.9001 34.4777 69.743 34.449 69.5502L33.6612 63.0888C33.654 62.896 34.1912 62.5605 34.3846 62.5533Z" fill="#00B643"/>
<path d="M68.7408 70.1357L77.1345 69.5717C77.3064 69.5574 77.4711 69.7002 77.4926 69.8929L78.7746 75.9902C78.8032 76.1759 78.2303 76.3544 78.0584 76.3687L69.6575 77.0184C69.4784 77.0326 69.3137 76.8898 69.2851 76.6971L68.4614 70.507C68.44 70.3142 68.5617 70.15 68.7408 70.1357Z" fill="#00B643"/>
<path d="M65.2952 40.3203L73.6531 40.1204C73.825 40.1132 73.9468 39.9633 73.9181 39.7777L73.1088 33.8089C73.0873 33.6233 72.9226 33.4805 72.7507 33.4805L64.3999 33.5947C64.2209 33.5947 64.0991 33.7518 64.1206 33.9374L64.9228 39.9847C64.9514 40.1775 65.1161 40.3274 65.2952 40.3203Z" fill="#00CD4B"/>
<path d="M54.5023 40.5774L63.1252 40.3703C63.3043 40.3632 63.426 40.2132 63.4045 40.0276L62.6024 33.966C62.5809 33.7804 62.409 33.6304 62.2371 33.6376L53.6214 33.7589C53.4423 33.7589 53.3062 33.916 53.3349 34.1017L54.1298 40.2418C54.1513 40.4346 54.3161 40.5845 54.5023 40.5774Z" fill="#00CD4B"/>
<path d="M43.3656 40.8487L52.2678 40.6345C52.454 40.6274 52.583 40.4703 52.5543 40.2846L51.7593 34.1302C51.7379 33.9446 51.566 33.7875 51.3798 33.7947L42.4847 33.916C42.2985 33.916 42.1624 34.0803 42.1839 34.2659L42.9717 40.506C43.0003 40.6988 43.1794 40.8487 43.3656 40.8487Z" fill="#00CD4B"/>
<path d="M31.8634 41.12L41.0522 40.8986C41.2384 40.8915 41.3744 40.7344 41.353 40.5417L40.5723 34.2873C40.5508 34.0945 40.3718 33.9446 40.1856 33.9446L31.004 34.0731C30.8106 34.0731 30.6674 34.2373 30.696 34.4301L31.4695 40.7701C31.491 40.97 31.6701 41.1271 31.8634 41.12Z" fill="#00CD4B"/>
<path d="M66.4918 49.3449L74.8641 49.0379C75.0359 49.0307 75.1577 48.8737 75.129 48.6952L74.3126 42.6907C74.2911 42.5051 74.1264 42.3623 73.9545 42.3694L65.5894 42.5979C65.4103 42.605 65.2886 42.7621 65.3101 42.9477L66.1194 49.0307C66.1552 49.2021 66.3199 49.352 66.4918 49.3449Z" fill="#00CD4B"/>
<path d="M55.6911 49.7447L64.3283 49.4234C64.5074 49.4163 64.6291 49.2592 64.6076 49.0736L63.7983 42.9763C63.7769 42.7906 63.605 42.6407 63.4331 42.6478L54.803 42.8834C54.6239 42.8906 54.4879 43.0476 54.5165 43.2333L55.3187 49.4163C55.333 49.6019 55.5049 49.7518 55.6911 49.7447Z" fill="#00E755"/>
<path d="M44.5407 50.1588L53.4501 49.8304C53.6363 49.8233 53.7653 49.6662 53.7366 49.4734L52.9345 43.2833C52.913 43.0977 52.7411 42.9406 52.5549 42.9477L43.6526 43.1905C43.4664 43.1976 43.3304 43.3547 43.3518 43.5475L44.1397 49.8233C44.1755 50.016 44.3473 50.166 44.5407 50.1588Z" fill="#00E755"/>
<path d="M33.0239 50.5872L42.227 50.2445C42.4132 50.2374 42.5492 50.0732 42.5278 49.8804L41.74 43.5832C41.7185 43.3904 41.5394 43.2405 41.3532 43.2405L32.1573 43.4904C31.9639 43.4975 31.8207 43.6617 31.8494 43.8545L32.63 50.2374C32.6515 50.4373 32.8305 50.5944 33.0239 50.5872Z" fill="#00E755"/>
<path d="M67.7021 58.4194L76.0815 57.9982C76.2534 57.991 76.3751 57.834 76.3465 57.6483L75.5229 51.6082C75.5014 51.4225 75.3367 51.2797 75.1648 51.2869L66.7925 51.6224C66.6135 51.6296 66.4917 51.7867 66.5132 51.9723L67.3297 58.091C67.3583 58.2838 67.523 58.4337 67.7021 58.4194Z" fill="#00CD4B"/>
<path d="M56.88 58.9693L65.5245 58.5337C65.7035 58.5266 65.8253 58.3624 65.8038 58.1768L64.9945 52.0438C64.973 51.8581 64.8011 51.7082 64.6221 51.7153L55.9848 52.0652C55.7986 52.0723 55.6697 52.2365 55.6983 52.4222L56.5005 58.6408C56.5291 58.8265 56.701 58.9764 56.88 58.9693Z" fill="#00E755"/>
<path d="M45.7145 59.5261L54.6383 59.0763C54.8245 59.0692 54.9534 58.905 54.9248 58.7122L54.1226 52.4792C54.1011 52.2865 53.9293 52.1365 53.743 52.1437L44.8265 52.5007C44.6403 52.5078 44.5042 52.672 44.5257 52.8648L45.3206 59.1834C45.3565 59.3905 45.5283 59.5404 45.7145 59.5261Z" fill="#00E755"/>
<path d="M34.1841 60.1116L43.4014 59.6475C43.5948 59.6404 43.7237 59.469 43.7022 59.2763L42.9073 52.9434C42.8858 52.7506 42.7067 52.6006 42.5205 52.6078L33.3175 52.9791C33.1241 52.9862 32.9809 53.1504 33.0095 53.3503L33.7902 59.7689C33.8116 59.9688 33.9907 60.1187 34.1841 60.1116Z" fill="#00E755"/>
<path d="M68.9189 67.5511L77.3055 67.0156C77.4773 67.0014 77.5991 66.8443 77.5705 66.6586L76.7468 60.5828C76.7182 60.3971 76.5606 60.2543 76.3887 60.2615L68.0093 60.7113C67.8303 60.7184 67.7085 60.8826 67.73 61.0683L68.5465 67.2227C68.5751 67.4155 68.7398 67.5583 68.9189 67.5511Z" fill="#00CD4B"/>
<path d="M58.0835 68.2437L66.7422 67.6939C66.9213 67.6797 67.043 67.5155 67.0215 67.3298L66.2051 61.154C66.1836 60.9684 66.0117 60.8184 65.8327 60.8256L57.1811 61.2896C56.9949 61.2968 56.866 61.461 56.8946 61.6538L57.7039 67.9081C57.7326 68.108 57.9044 68.2508 58.0835 68.2437Z" fill="#00E755"/>
<path d="M46.904 68.9576L55.8421 68.3864C56.0283 68.3721 56.1572 68.2079 56.1285 68.0151L55.3192 61.7465C55.2978 61.5537 55.1259 61.4038 54.9397 61.4181L46.0159 61.8964C45.8297 61.9036 45.6936 62.0749 45.7151 62.2677L46.5173 68.622C46.5387 68.8148 46.7178 68.9647 46.904 68.9576Z" fill="#00E755"/>
<path d="M35.3589 69.6931L44.5906 69.1076C44.7839 69.0933 44.9129 68.9291 44.8914 68.7292L44.0964 62.3606C44.0749 62.1678 43.8959 62.0179 43.7097 62.025L34.4923 62.5177C34.2989 62.5248 34.1557 62.6962 34.1843 62.8961L34.9721 69.3575C34.9865 69.5503 35.1655 69.7073 35.3589 69.6931Z" fill="#00E755"/>
<path d="M70.1513 76.8113L78.5522 76.1616C78.7241 76.1473 78.8458 75.9831 78.8244 75.7974L77.9936 69.693C77.9649 69.5074 77.8074 69.3646 77.6355 69.3717L69.2417 69.9358C69.0627 69.95 68.9409 70.1142 68.9624 70.2999L69.786 76.49C69.8075 76.6828 69.9722 76.8256 70.1513 76.8113Z" fill="#00CD4B"/>
<path d="M35.6092 39.3779C35.3156 39.385 35.1508 39.3422 35.115 39.2494L34.8644 38.5925L34.0551 38.614L33.9906 39.2494C33.9835 39.3565 33.8259 39.4136 33.5251 39.4207C33.3604 39.4279 33.2386 39.4207 33.1598 39.3993C33.0811 39.385 33.0381 39.3708 33.0381 39.3565L33.4893 35.8723C33.4893 35.8438 33.7185 35.8295 34.1768 35.8152C34.6424 35.8081 34.8715 35.8152 34.8787 35.8438L36.2036 39.2851C36.2036 39.3065 36.132 39.3279 35.9816 39.3493C35.8241 39.3636 35.7023 39.3708 35.6092 39.3779ZM34.1052 37.9571L34.6352 37.9428L34.2699 36.8933H34.2413L34.1052 37.9571Z" fill="#00B040"/>
<path d="M38.1807 35.7938C38.3741 35.8581 38.4815 35.9509 38.4958 36.0723C38.5102 36.1936 38.4887 36.3364 38.417 36.5149C38.3526 36.6934 38.2881 36.7791 38.2308 36.7791C38.2165 36.7791 38.195 36.7719 38.1664 36.7505C38.1449 36.7291 38.0876 36.7148 38.0088 36.6934C37.93 36.672 37.8584 36.6649 37.8011 36.6649C37.6078 36.672 37.4574 36.7434 37.3571 36.8862C37.2568 37.029 37.221 37.2432 37.264 37.5288C37.2998 37.8143 37.3929 38.0285 37.529 38.1642C37.6722 38.2998 37.8298 38.3641 38.0231 38.3641C38.1019 38.3641 38.1879 38.3498 38.2738 38.3284C38.3669 38.307 38.4314 38.2713 38.4672 38.2284C38.4743 38.2213 38.4887 38.2213 38.503 38.2142C38.5173 38.207 38.5674 38.2499 38.6319 38.3284C38.6964 38.4069 38.7608 38.4998 38.8253 38.6283C38.8897 38.7496 38.9255 38.8425 38.9327 38.9139C38.947 39.0495 38.8611 39.1566 38.6749 39.2351C38.4815 39.3208 38.2523 39.3637 37.9802 39.3708C37.5361 39.3779 37.1566 39.2351 36.8271 38.921C36.4977 38.614 36.2971 38.1713 36.2255 37.593C36.1539 37.0147 36.2398 36.5649 36.4905 36.2293C36.7412 35.8938 37.0849 35.7224 37.529 35.7153C37.7653 35.701 37.9802 35.7296 38.1807 35.7938Z" fill="#00B040"/>
<path d="M47.7342 35.6153C47.9204 35.6796 48.0278 35.7724 48.0421 35.8866C48.0565 36.0009 48.035 36.1508 47.9705 36.3222C47.9061 36.4935 47.8488 36.5863 47.7843 36.5863C47.77 36.5863 47.7485 36.5792 47.727 36.5578C47.7055 36.5364 47.6554 36.5221 47.5694 36.5007C47.4907 36.4792 47.419 36.4721 47.3689 36.4721C47.1827 36.4792 47.0395 36.5506 46.9392 36.6863C46.8389 36.8291 46.8103 37.0361 46.8461 37.3217C46.8819 37.6073 46.9678 37.8144 47.1039 37.95C47.24 38.0857 47.3976 38.1499 47.5838 38.1428C47.6554 38.1428 47.7413 38.1285 47.8344 38.1071C47.9275 38.0857 47.9848 38.05 48.0206 38.0071C48.0278 38 48.0421 38 48.0565 37.9929C48.0779 37.9929 48.1209 38.0285 48.1782 38.0999C48.2427 38.1713 48.3071 38.2713 48.3644 38.3927C48.4289 38.514 48.4575 38.6069 48.4718 38.6711C48.4862 38.7996 48.4074 38.9067 48.2212 38.9853C48.035 39.0638 47.813 39.1138 47.5408 39.1138C47.1111 39.1209 46.7387 38.9781 46.4164 38.6711C46.1013 38.3641 45.9007 37.9286 45.8291 37.3574C45.7575 36.7862 45.8434 36.3364 46.0869 36.008C46.3304 35.6796 46.667 35.5082 47.0968 35.5011C47.3331 35.5225 47.548 35.5511 47.7342 35.6153Z" fill="#00B040"/>
<path d="M57.3669 35.3368C57.5818 35.3296 57.768 35.4082 57.9255 35.5724C58.0831 35.7295 58.1834 35.9651 58.2192 36.2792C58.2621 36.5934 58.2263 36.829 58.1117 36.9932C57.9971 37.1574 57.8324 37.2431 57.6247 37.2431C57.4099 37.2502 57.2308 37.1717 57.0733 37.0218C56.9157 36.8647 56.8154 36.6291 56.7725 36.3149C56.7295 35.9936 56.7653 35.758 56.8799 35.5938C56.9945 35.4296 57.1592 35.3439 57.3669 35.3368ZM59.229 35.3511C59.2505 35.3225 59.2791 35.3082 59.3149 35.3082C59.4295 35.3082 59.5441 35.3653 59.6587 35.4867C59.7017 35.5367 59.7303 35.5724 59.7303 35.6081C59.7375 35.6367 59.7303 35.6652 59.7232 35.6795L57.8897 38.8709C57.8682 38.8995 57.8396 38.9138 57.8038 38.9138C57.6892 38.9138 57.5746 38.8567 57.4672 38.7353C57.417 38.6853 57.3955 38.6496 57.3884 38.621C57.3812 38.5925 57.3884 38.5711 57.3955 38.5496L59.229 35.3511ZM57.725 36.2864C57.6963 36.0722 57.6104 35.9651 57.46 35.9722C57.3096 35.9722 57.2523 36.0865 57.281 36.3006C57.2953 36.4006 57.3239 36.4791 57.3741 36.5291C57.4242 36.5791 57.4815 36.6077 57.5459 36.6077C57.6104 36.6077 57.6605 36.5791 57.6963 36.522C57.725 36.4649 57.7393 36.3863 57.725 36.2864ZM59.5441 36.9504C59.759 36.9432 59.938 37.0218 60.0956 37.1788C60.2532 37.3359 60.3534 37.5715 60.3892 37.8785C60.4322 38.1855 60.3964 38.4283 60.2818 38.5925C60.1672 38.7567 60.0096 38.8424 59.7948 38.8495C59.5871 38.8567 59.4009 38.7781 59.2433 38.6282C59.0858 38.4783 58.9855 38.2426 58.9497 37.9214C58.9067 37.6072 58.9425 37.3645 59.0571 37.2002C59.1645 37.036 59.3293 36.9575 59.5441 36.9504ZM59.8951 37.8928C59.8664 37.6786 59.7805 37.5715 59.6301 37.5787C59.4797 37.5787 59.4224 37.6929 59.451 37.9071C59.4653 38.007 59.494 38.0856 59.5441 38.1355C59.5943 38.1855 59.6515 38.2141 59.716 38.2141C59.7805 38.2141 59.8306 38.1855 59.8664 38.1284C59.9022 38.0713 59.9094 37.9928 59.8951 37.8928Z" fill="#00B040"/>
<path d="M71.7129 46.2463L69.0272 46.3391C68.9412 46.3391 68.8768 46.282 68.8266 46.1606C68.798 46.0964 68.7837 46.0393 68.7694 45.9821C68.7622 45.925 68.7622 45.8608 68.7765 45.7965C68.798 45.6751 68.8481 45.6109 68.9341 45.6109L71.6198 45.5181C71.7057 45.5181 71.7702 45.5752 71.8203 45.6966C71.849 45.7608 71.8633 45.8179 71.8705 45.875C71.8776 45.9322 71.8776 45.9964 71.8633 46.0607C71.849 46.1821 71.7988 46.2463 71.7129 46.2463ZM70.6673 45.1968C70.6673 45.2253 70.524 45.2396 70.2375 45.2468C69.9511 45.2539 69.8007 45.2468 69.8007 45.2253L69.6861 44.3472C69.6789 44.3186 69.8222 44.2972 70.1158 44.29C70.4023 44.2829 70.5527 44.2829 70.5527 44.3043L70.6673 45.1968ZM70.9752 47.5172C70.9752 47.5386 70.832 47.5529 70.5455 47.5672C70.259 47.5814 70.1086 47.5743 70.1086 47.56L69.994 46.6818C69.9869 46.6533 70.1301 46.6319 70.4238 46.6247C70.7102 46.6176 70.8606 46.6176 70.8606 46.6319L70.9752 47.5172Z" fill="#00B040"/>
<path d="M37.579 48.6952C37.5719 48.7523 37.3928 48.7809 37.0562 48.7952C36.7196 48.8095 36.5262 48.8023 36.4761 48.7666C36.4618 48.7595 36.4546 48.7452 36.4546 48.7309L36.9774 46.1963L35.9533 46.232C35.853 46.232 35.7814 46.075 35.7384 45.7394C35.7241 45.6252 35.7241 45.5181 35.7313 45.411C35.7384 45.3039 35.7742 45.2539 35.8244 45.2468L37.5934 45.1825C37.7294 45.1754 37.844 45.2468 37.9515 45.3967C38.0016 45.4681 38.0374 45.5466 38.066 45.618L37.579 48.6952Z" fill="#00BD45"/>
<path d="M49.8256 47.2601C49.8686 47.5885 49.7898 47.8598 49.5893 48.074C49.3888 48.2882 49.0951 48.4024 48.7155 48.4167C48.336 48.431 48.0208 48.3453 47.7702 48.1525C47.5267 47.9598 47.3763 47.7027 47.3405 47.3814C47.2975 47.0602 47.4192 46.7674 47.7057 46.5033C47.455 46.3105 47.319 46.0749 47.276 45.7964C47.2402 45.518 47.319 45.2824 47.5052 45.0967C47.6914 44.9111 47.9492 44.8112 48.2787 44.7969C48.6081 44.7897 48.8803 44.8611 49.1023 45.0253C49.3243 45.1896 49.4461 45.3966 49.4747 45.6536C49.5034 45.9107 49.4317 46.1463 49.2527 46.3605C49.3959 46.4533 49.5248 46.5818 49.6323 46.7389C49.7325 46.8959 49.797 47.0673 49.8256 47.2601ZM48.293 47.2672C48.3073 47.3672 48.3431 47.4386 48.4076 47.4957C48.472 47.5528 48.5437 47.5814 48.6296 47.5742C48.7155 47.5742 48.78 47.5385 48.823 47.4814C48.8659 47.4243 48.8874 47.3386 48.8731 47.2458C48.8516 47.0673 48.7155 46.9174 48.4792 46.8103C48.3288 46.9245 48.2643 47.0744 48.293 47.2672ZM48.6368 45.8321C48.6296 45.7607 48.5938 45.6965 48.5365 45.6465C48.4792 45.5965 48.4219 45.5751 48.3574 45.5751C48.1927 45.5822 48.1139 45.6679 48.1283 45.8321C48.1498 45.9821 48.2787 46.1249 48.5222 46.2462C48.6153 46.1177 48.6511 45.9749 48.6368 45.8321Z" fill="#00BD45"/>
<path d="M58.8355 47.3243C59.079 47.3672 59.258 47.3814 59.3798 47.3814C59.5015 47.3743 59.6018 47.3315 59.6877 47.2529C59.7737 47.1673 59.8166 47.0459 59.8095 46.8745C59.6591 46.9245 59.5373 46.9531 59.4371 46.9602C59.1076 46.9745 58.8355 46.8817 58.6278 46.696C58.4201 46.5104 58.2983 46.2391 58.2482 45.8821C58.2052 45.5251 58.2697 45.2324 58.4487 45.0039C58.6278 44.7755 58.8999 44.6541 59.258 44.6469C59.6161 44.6327 59.9169 44.7612 60.1604 45.0182C60.4039 45.2752 60.5543 45.6608 60.6259 46.1748C60.7119 46.8174 60.6689 47.3172 60.4899 47.667C60.318 48.0169 60.01 48.2025 59.5803 48.2168C59.0432 48.2382 58.7638 48.1525 58.7352 47.9669C58.7209 47.8669 58.7209 47.7384 58.7424 47.5742C58.7638 47.41 58.7925 47.3315 58.8355 47.3243ZM59.3726 45.5394C59.2723 45.5394 59.2007 45.5822 59.1506 45.6465C59.1076 45.7179 59.0861 45.8036 59.1005 45.9107C59.1148 46.0178 59.1577 46.1034 59.2294 46.1606C59.301 46.2248 59.3869 46.2534 59.4872 46.2462C59.5875 46.2462 59.6662 46.2177 59.7235 46.1677C59.6949 45.9392 59.6519 45.775 59.5946 45.6751C59.5445 45.5822 59.4729 45.5323 59.3726 45.5394Z" fill="#00BD45"/>
<path d="M66.9566 38.2926C66.5698 38.2998 66.2404 38.1784 65.9682 37.9142C65.6889 37.6572 65.517 37.2717 65.4526 36.7576C65.3881 36.2507 65.4597 35.858 65.6674 35.5938C65.8751 35.3297 66.1759 35.1869 66.5627 35.1797C66.9494 35.1726 67.2789 35.294 67.551 35.551C67.8232 35.8009 67.9951 36.1936 68.0595 36.7148C68.1311 37.236 68.0595 37.6287 67.8518 37.8857C67.637 38.1499 67.3362 38.2855 66.9566 38.2926ZM66.6558 36.0151C66.5269 36.0151 66.4194 36.0865 66.3478 36.215C66.2762 36.3435 66.2547 36.522 66.2834 36.7505C66.312 36.9789 66.3765 37.1574 66.4767 37.2788C66.577 37.4002 66.6988 37.4573 66.8348 37.4573C66.9709 37.4573 67.0783 37.393 67.1428 37.2645C67.2144 37.136 67.2287 36.9575 67.2001 36.7291C67.1714 36.5006 67.0998 36.3221 66.9996 36.2007C66.9065 36.0722 66.7847 36.0151 66.6558 36.0151Z" fill="#00B040"/>
<path d="M69.6995 35.1654C69.7425 35.1654 69.7855 35.2939 69.8213 35.5438C69.8571 35.8008 69.8499 35.9222 69.7998 35.9294L69.055 35.9436L69.1194 36.4363L69.6136 36.4291C69.6565 36.4291 69.6995 36.5362 69.7282 36.7647C69.7568 36.986 69.7497 37.1003 69.7067 37.1003L69.2053 37.1074L69.3414 38.1427C69.3486 38.1855 69.2985 38.2141 69.1982 38.2283C69.0979 38.2426 69.012 38.2498 68.9475 38.2569L68.7541 38.2498C68.6181 38.2355 68.5465 38.2069 68.5465 38.1712L68.1669 35.3153C68.1597 35.2725 68.1669 35.2368 68.1812 35.2225C68.1955 35.2082 68.2242 35.2011 68.26 35.2011L69.6995 35.1654Z" fill="#00B040"/>
<path d="M39.5624 56.7772C39.5982 56.7772 39.6269 56.9058 39.6627 57.1628C39.6985 57.4198 39.6985 57.5483 39.6627 57.5483L39.3332 57.5697L39.4192 58.2123C39.4263 58.248 39.3619 58.2837 39.2258 58.3051C39.0897 58.3266 38.9751 58.3408 38.8749 58.348H38.6672C38.4953 58.3408 38.4022 58.3194 38.395 58.2694L38.3162 57.634L37.3136 57.684C37.2133 57.5983 37.1202 57.4912 37.0342 57.3484C36.9483 57.2128 36.8982 57.1057 36.891 57.0485C36.8838 56.9843 36.8838 56.9343 36.9053 56.8986L37.7576 54.8567C37.7648 54.8281 37.865 54.8067 38.0584 54.7781C38.2518 54.7567 38.4523 54.7424 38.66 54.7281C38.8749 54.721 38.9751 54.721 38.9823 54.7424L39.2544 56.7915L39.5624 56.7772ZM38.352 56.8415L38.216 55.7705L37.7648 56.8701L38.352 56.8415Z" fill="#00BD45"/>
<path d="M50.3056 54.2499C50.3701 54.2499 50.4131 54.3855 50.456 54.664C50.4704 54.7497 50.4704 54.8568 50.4775 54.971C50.4775 55.0924 50.456 55.1495 50.4202 55.1566L49.4677 55.1995L49.5107 55.5707L49.6754 55.5636C50.0263 55.5493 50.2985 55.6421 50.4919 55.842C50.6924 56.0419 50.807 56.3132 50.8571 56.656C50.9001 56.9987 50.8213 57.2842 50.6136 57.5127C50.4059 57.7412 50.1194 57.8626 49.7542 57.884C49.3889 57.9054 49.1096 57.8626 48.9234 57.7626C48.8947 57.7198 48.8733 57.6555 48.8589 57.5627C48.8446 57.4699 48.8446 57.3414 48.8446 57.17C48.8518 56.9987 48.8733 56.913 48.9162 56.913C48.9162 56.913 48.9306 56.9201 48.9449 56.9344C49.1884 57.0201 49.3746 57.0629 49.4963 57.0558C49.6181 57.0486 49.7184 57.0129 49.7828 56.9344C49.8544 56.863 49.8831 56.7702 49.8688 56.6631C49.833 56.3918 49.6754 56.2704 49.3961 56.2775L48.9735 56.3061C48.9449 56.3132 48.9091 56.299 48.8733 56.2704C48.8375 56.2347 48.816 56.1919 48.8088 56.1348L48.6011 54.5569C48.5796 54.4212 48.6226 54.3498 48.7229 54.3427L50.3056 54.2499Z" fill="#00BD45"/>
<path d="M61.2558 54.9138C61.1197 54.8496 60.9693 54.821 60.8046 54.8282C60.5109 54.8424 60.3677 55.0495 60.382 55.4493C60.5396 55.3922 60.7115 55.3565 60.8977 55.3494C61.2128 55.3351 61.4635 55.4065 61.6353 55.5778C61.8072 55.742 61.9147 55.9776 61.9505 56.2775C62.0006 56.6416 61.929 56.9344 61.7428 57.1557C61.5566 57.377 61.2844 57.4984 60.912 57.5198C60.5467 57.5412 60.2388 57.4127 59.9953 57.1414C59.7518 56.8701 59.5942 56.4774 59.5226 55.9634C59.4438 55.3636 59.5083 54.8781 59.7231 54.514C59.938 54.1499 60.2531 53.9571 60.6685 53.9428C61.1412 53.9214 61.3918 54.0142 61.4133 54.2141C61.4348 54.3569 61.4062 54.514 61.3417 54.6854C61.3345 54.7496 61.2987 54.8282 61.2558 54.9138ZM61.134 56.3132C61.1197 56.2133 61.0767 56.1276 61.0123 56.0705C60.9406 56.0062 60.8475 55.9776 60.7258 55.9848C60.604 55.9919 60.5181 56.0205 60.4608 56.0705C60.4608 56.1133 60.468 56.1633 60.4751 56.2133C60.4823 56.2632 60.4966 56.3346 60.5181 56.406C60.5396 56.4846 60.5825 56.556 60.6398 56.6274C60.7043 56.6988 60.7759 56.7345 60.8619 56.7273C61.0767 56.7202 61.1698 56.5774 61.134 56.3132Z" fill="#00BD45"/>
<path d="M71.5264 54.2355C72.1137 54.0856 72.436 54.0071 72.4933 54.0071C72.5434 54.0071 72.6007 54.0499 72.6652 54.1427C72.7296 54.2355 72.7654 54.3141 72.7726 54.3783C72.8013 54.5783 72.7583 54.6925 72.6437 54.7068L71.7914 54.8567L72.4718 55.742C72.5649 55.9205 72.479 56.0704 72.2211 56.1918C72.171 56.2132 72.1352 56.2204 72.1065 56.2204C72.0063 56.2275 71.9418 56.199 71.906 56.149L71.3402 55.2637L71.0538 56.1918C71.0323 56.2347 70.9965 56.2561 70.9463 56.2632C70.8962 56.2632 70.8389 56.2632 70.7601 56.2489C70.6885 56.2347 70.6026 56.1918 70.5166 56.1133C70.4307 56.0347 70.3877 55.9776 70.3805 55.9277C70.3734 55.8848 70.3805 55.8491 70.3949 55.8206L70.8031 54.9067C70.3805 54.871 70.0797 54.8424 69.9222 54.8353C69.8076 54.8353 69.736 54.7496 69.7145 54.5783C69.7001 54.4783 69.7145 54.3855 69.7503 54.2784C69.7861 54.1784 69.8434 54.1213 69.9222 54.1213L70.889 54.2641L70.7315 53.3145C70.7171 53.2217 70.7673 53.1575 70.8819 53.1146C70.9392 53.0932 70.9965 53.0789 71.0609 53.0718C71.1182 53.0718 71.1827 53.0789 71.2471 53.0932C71.3689 53.1289 71.4333 53.186 71.4405 53.2788L71.5264 54.2355Z" fill="#00B040"/>
<path d="M40.5153 67.8438C40.5224 67.9009 40.3577 67.9437 40.0139 67.9652C39.6701 67.9866 39.4983 67.9652 39.4911 67.908L39.1617 65.3806L38.6173 65.4163C38.5171 65.4234 38.4455 65.2592 38.4025 64.9308C38.3882 64.8166 38.3882 64.7095 38.3953 64.6024C38.4025 64.4953 38.4311 64.4382 38.4884 64.4382L39.8707 64.3596C39.928 64.3596 39.9781 64.3668 40.0139 64.3882C40.0497 64.4096 40.0712 64.4453 40.0784 64.481L40.5153 67.8438Z" fill="#00BD45"/>
<path d="M52.0169 67.2156L50.3983 67.3155C50.2837 67.3227 50.1906 67.2156 50.1118 66.9871C50.076 66.8657 50.0474 66.7729 50.0402 66.7086C50.033 66.6444 50.033 66.6015 50.0545 66.5801C50.6848 65.7591 50.9784 65.2093 50.9426 64.9309C50.9283 64.838 50.8996 64.7666 50.8423 64.7238C50.7922 64.681 50.7134 64.6595 50.606 64.6667C50.4986 64.6738 50.4055 64.7024 50.3052 64.7452C50.2049 64.7952 50.1333 64.838 50.0832 64.888C49.9328 64.7381 49.8253 64.5739 49.7537 64.4025C49.7322 64.3454 49.7179 64.2954 49.7108 64.2454C49.7036 64.1955 49.7036 64.1526 49.7179 64.1026C49.7322 64.017 49.8468 63.9242 50.0474 63.8313C50.2551 63.7385 50.4771 63.6885 50.7206 63.6743C51.4511 63.6314 51.8522 63.9456 51.9453 64.6096C51.9811 64.9023 51.9238 65.2093 51.7734 65.5234C51.6158 65.8376 51.4225 66.116 51.1933 66.3517L52.1745 66.2517C52.2103 66.4302 52.2389 66.5801 52.2604 66.7158C52.2747 66.8443 52.2676 66.9585 52.2246 67.0513C52.1816 67.1584 52.11 67.2084 52.0169 67.2156Z" fill="#00BD45"/>
<path d="M60.9479 66.5159C60.9336 66.4231 60.9407 66.316 60.9694 66.1946C60.998 66.0732 61.0267 65.9804 61.0625 65.9019C61.0911 65.8305 61.1126 65.7876 61.1198 65.7876C61.3203 65.8947 61.5209 65.9376 61.7214 65.9233C61.8503 65.9161 61.9434 65.8804 62.015 65.8233C62.0866 65.7662 62.1153 65.6877 62.101 65.5949C62.0866 65.502 62.0437 65.4449 61.9721 65.4235C61.9004 65.4021 61.7858 65.3878 61.6283 65.3878L61.4564 65.3949C61.4206 65.3949 61.3776 65.3521 61.3275 65.2522C61.2845 65.1593 61.2559 65.0594 61.2415 64.9666C61.2201 64.8095 61.2559 64.731 61.3418 64.7167L61.4779 64.7024C61.5638 64.6953 61.6498 64.6667 61.7357 64.6096C61.8217 64.5525 61.8575 64.4811 61.8503 64.4025C61.8288 64.2669 61.7071 64.2026 61.4707 64.2169C61.2917 64.224 61.127 64.274 60.9766 64.3597C60.7975 64.1027 60.6972 63.8956 60.6829 63.7457C60.6614 63.5957 60.7474 63.4744 60.9407 63.3887C61.1341 63.303 61.3776 63.2459 61.6784 63.2316C61.9792 63.2173 62.2227 63.2673 62.4161 63.3887C62.6023 63.5101 62.7097 63.6886 62.7384 63.917C62.7885 64.3168 62.6668 64.631 62.366 64.8666C62.7813 65.0094 63.0177 65.2879 63.075 65.6877C63.118 66.0018 63.0463 66.2588 62.8601 66.4659C62.6739 66.6729 62.3874 66.7872 61.9935 66.8157C61.7429 66.83 61.5137 66.8086 61.2988 66.7443C61.0768 66.7015 60.9622 66.623 60.9479 66.5159Z" fill="#00BD45"/>
</g>
</svg>
