<svg width="70" height="70" viewBox="0 0 70 70" fill="none" xmlns="http://www.w3.org/2000/svg">
<mask id="mask0_698_513" style="mask-type:alpha" maskUnits="userSpaceOnUse" x="0" y="0" width="70" height="70">
<rect width="70" height="70" rx="10" fill="#D9D9D9"/>
</mask>
<g mask="url(#mask0_698_513)">
<rect width="70" height="70" rx="10" fill="#FFAA00"/>
<g clip-path="url(#clip0_698_513)">
<path d="M21.3741 20.9049L-2.89941 27.1349V52.2706C-2.89941 56.6424 7.96829 63 21.3741 63C34.7798 63 45.6475 56.6402 45.6475 52.2706V27.1349L21.3741 20.9049Z" fill="#FF7B00"/>
<path d="M57.4582 36.9825C57.1606 36.9825 56.9199 36.7406 56.9199 36.4416V25.3691C56.9199 25.07 57.1606 24.8281 57.4582 24.8281C57.7557 24.8281 57.9964 25.07 57.9964 25.3691V36.4416C57.9964 36.7406 57.7557 36.9825 57.4582 36.9825Z" fill="#FF7B00"/>
<path d="M57.4671 23.6845L24.1989 7.64653C22.4135 6.78449 20.3327 6.78449 18.5473 7.64653L-14.7187 23.6845C-15.9987 24.3025 -15.9987 26.1343 -14.7187 26.7523L19.591 40.3867C20.7375 40.8419 22.0131 40.8419 23.1596 40.3867L57.4693 26.7523C58.7493 26.1343 58.7493 24.3025 57.4693 23.6845H57.4671Z" fill="#FF9500"/>
<path d="M57.4579 40.136C57.4579 40.136 50.9136 39.4829 50.2813 52.3696C50.2507 53.0007 50.5723 53.5967 51.1149 53.9178C53.095 55.0943 58.1515 57.3901 63.1182 53.8804C63.5667 53.5637 63.8359 53.0513 63.8402 52.5015C63.8643 49.6207 63.4748 40.3537 57.4579 40.136Z" fill="#FF9500"/>
<path d="M61.6303 48.3431C61.6127 48.1253 61.5865 47.9076 61.5602 47.6899C61.534 47.4722 61.5099 47.2523 61.4793 47.0346L61.3568 46.3859C61.313 46.1703 61.2802 45.9504 61.2167 45.7371L61.0461 45.095C61.0307 45.0422 61.0176 44.9872 61.0023 44.9345L60.9476 44.7761L60.8382 44.4594C60.766 44.2483 60.6982 44.035 60.6041 43.8305C60.5144 43.626 60.4312 43.4171 60.335 43.2126L60.0243 42.61C59.9105 42.4143 59.7902 42.2208 59.672 42.025C59.5451 41.8359 59.4095 41.6512 59.2738 41.4643L59.055 41.196L58.9456 41.0618L58.8253 40.9343C58.7443 40.8507 58.6677 40.7628 58.5802 40.6836L58.3198 40.4439C58.2258 40.3691 58.136 40.29 58.0354 40.2174L57.8822 40.1096L57.7969 40.0569L57.7531 40.0305L57.6941 39.9975C57.6941 39.9975 57.6853 39.9931 57.6809 39.9909C57.6678 39.9843 57.6569 39.9777 57.6437 39.9733C57.4884 39.9095 57.3046 39.9227 57.158 40.0283H57.1558L56.8123 40.279L56.6395 40.4021C56.5826 40.4439 56.5301 40.4901 56.4732 40.5341L56.145 40.8024C56.0378 40.8947 55.9371 40.9959 55.8343 41.0926C55.6221 41.2818 55.4361 41.4973 55.2414 41.7018C55.1495 41.8095 55.0597 41.9195 54.97 42.0294C54.9263 42.0844 54.8803 42.1394 54.8366 42.1944L54.7119 42.3659C54.3683 42.8167 54.0795 43.3049 53.8192 43.8041C53.5588 44.3033 53.3487 44.8267 53.1715 45.3567C52.8149 46.4166 52.6289 47.5206 52.5633 48.6201C52.5326 49.1699 52.537 49.7197 52.5742 50.2651C52.6158 50.8104 52.6792 51.3536 52.8061 51.8836C52.8193 50.7994 52.933 49.7329 53.1278 48.6883C53.3247 47.6459 53.6069 46.63 54.0073 45.6712C54.2064 45.1917 54.4274 44.7233 54.6878 44.2791C54.946 43.8349 55.226 43.4039 55.5433 43.0058L55.6592 42.8541C55.6986 42.8057 55.7424 42.7573 55.784 42.709L55.9131 42.5594C55.7008 43.2895 55.5674 44.0328 55.5039 44.7761C55.4383 45.5744 55.4426 46.3727 55.5192 47.1599C55.5958 47.9472 55.7249 48.7279 55.9634 49.48C55.9918 48.6949 56.0356 47.923 56.1056 47.1577C56.1756 46.3947 56.2741 45.6382 56.4097 44.8971C56.4776 44.5254 56.5607 44.1604 56.6482 43.7997C56.7423 43.4391 56.8451 43.0828 56.9655 42.7354C57.0661 42.4385 57.1821 42.1504 57.3068 41.8667C57.3352 41.9767 57.3637 42.0844 57.3921 42.1944C57.5278 42.7244 57.6503 43.2587 57.7663 43.7975C57.8844 44.3341 57.9873 44.8773 58.0835 45.4227C58.1864 45.968 58.2586 46.52 58.3505 47.0786C58.4533 46.5244 58.5233 45.957 58.5408 45.3919C58.5583 45.1082 58.5518 44.8245 58.554 44.5408C58.5452 44.2571 58.5386 43.9734 58.5168 43.6898C58.4796 43.1224 58.4139 42.5572 58.3198 41.9965C58.3133 41.9591 58.3067 41.9239 58.3001 41.8865L58.4905 42.0976C58.6174 42.2582 58.7443 42.4165 58.8668 42.5814C59.3548 43.2433 59.7552 43.9822 60.103 44.7497L60.2343 45.0378L60.3 45.183L60.3568 45.3303L60.5888 45.924C60.6719 46.1198 60.7332 46.3265 60.801 46.5288L61.0067 47.1379L61.3633 48.3826C61.4618 48.8027 61.5646 49.2249 61.6784 49.6493C61.6696 49.2139 61.6499 48.7763 61.6281 48.3387L61.6303 48.3431Z" fill="#FF7B00"/>
<path d="M58.2252 40.3215C59.2489 39.8953 59.7351 38.7157 59.311 37.6867C58.887 36.6578 57.7133 36.1692 56.6896 36.5954C55.6658 37.0216 55.1797 38.2012 55.6037 39.2301C56.0278 40.2591 57.2015 40.7477 58.2252 40.3215Z" fill="#FF9500"/>
</g>
</g>
<defs>
<clipPath id="clip0_698_513">
<rect width="79.52" height="56" fill="white" transform="translate(-15.6797 7)"/>
</clipPath>
</defs>
</svg>
