<svg width="70" height="70" viewBox="0 0 70 70" fill="none" xmlns="http://www.w3.org/2000/svg">
<mask id="mask0_698_729" style="mask-type:alpha" maskUnits="userSpaceOnUse" x="0" y="0" width="70" height="70">
<rect width="70" height="70" rx="10" fill="#00D74F"/>
</mask>
<g mask="url(#mask0_698_729)">
<rect width="70" height="70" rx="10" fill="#F36C5D"/>
<g clip-path="url(#clip0_698_729)">
<path d="M68.727 35.4548C70.6149 24.243 63.6417 13.7222 53.152 11.9559C42.6623 10.1897 32.6283 17.8468 30.7405 29.0587C28.8527 40.2705 35.8258 50.7913 46.3155 52.5576C56.8052 54.3238 66.8392 46.6667 68.727 35.4548Z" fill="#FFA59B"/>
<path d="M71.4954 36.158C70.6969 40.9145 68.418 45.4628 64.6734 49.0445C55.4943 57.8149 41.0072 57.4553 32.3116 48.2389C27.1665 42.7857 25.2039 35.4542 26.3586 28.56L30.5687 29.2692C29.6291 34.8799 31.2274 40.8454 35.4113 45.2815C42.4811 52.7765 54.27 53.0689 61.7366 45.9317C64.7826 43.019 66.6381 39.3186 67.2879 35.45L71.4954 36.158ZM65.5468 16.4796C70.6913 21.931 72.6521 29.2631 71.4954 36.158L67.2879 35.45C68.2281 29.8411 66.6317 23.875 62.4477 19.439C55.3785 11.9458 43.5859 11.6484 36.1206 18.7831C33.0728 21.6964 31.2172 25.3968 30.5687 29.2692L26.3586 28.56C27.1565 23.8016 29.4386 19.2501 33.185 15.6679C42.3592 6.90117 56.8488 7.26201 65.5449 16.4803L65.5468 16.4796Z" fill="#E74B3A"/>
<path d="M15.8101 59.7182L20.0687 64.2292L36.2358 48.7767L31.9791 44.265L15.8101 59.7182Z" fill="#E74B3A"/>
<path d="M6.74916 65.8067C4.76226 67.7029 4.68022 70.8586 6.55958 72.8511C8.43706 74.8442 11.5685 74.9218 13.5541 73.0219L30.2098 55.6183C31.3026 54.572 29.8233 54.1226 29.7562 54.0514C29.7562 54.0514 26.1942 49.8955 26.0976 49.8859C26.0976 49.8859 25.7587 49.344 24.6634 50.3891L6.74916 65.8067Z" fill="#F58E82"/>
<path d="M63.9737 36.1449C65.513 27.0039 59.2359 18.3271 49.9541 16.7638C46.9951 16.2658 44.0897 16.5516 41.4526 17.4669C44.6151 15.8547 48.3205 15.207 52.1106 15.8454C61.3924 17.4087 67.6695 26.0855 66.1302 35.2265C65.0812 41.4547 60.6753 46.2888 55.0381 48.2457C59.6185 45.9116 63.0608 41.5537 63.9718 36.1455L63.9737 36.1449Z" fill="#FFD4CF"/>
</g>
</g>
<defs>
<clipPath id="clip0_698_729">
<rect width="76.3281" height="51.003" fill="white" transform="translate(-9 27.2689) rotate(-18.2922)"/>
</clipPath>
</defs>
</svg>
