<svg width="70" height="70" viewBox="0 0 70 70" fill="none" xmlns="http://www.w3.org/2000/svg">
<mask id="mask0_699_23" style="mask-type:alpha" maskUnits="userSpaceOnUse" x="0" y="0" width="70" height="70">
<rect width="70" height="70" rx="10" fill="#D9D9D9"/>
</mask>
<g mask="url(#mask0_699_23)">
<rect x="0.168945" width="70" height="70" rx="10" fill="#E4E817"/>
<g clip-path="url(#clip0_699_23)">
<path d="M68.5157 33.5527H67.637V25.4018C67.637 15.0264 59.2352 6.53067 48.896 6.33167C38.5554 6.53067 30.1549 15.0264 30.1549 25.4018V33.5527H29.2763C24.2035 33.5527 20.0518 37.699 20.0518 42.7682V66.061C20.0518 71.1301 24.2035 75.2764 29.2763 75.2764H68.5157C73.5898 75.2764 77.7402 71.1287 77.7402 66.061V42.7682C77.7402 37.699 73.5884 33.5527 68.5157 33.5527ZM51.9781 54.8814L52.7258 61.2904C52.8936 62.7243 52.0995 63.8978 50.963 63.8978H46.829C45.6924 63.8978 44.8984 62.7243 45.0662 61.2904L45.8139 54.8814C45.8575 54.5038 45.9858 54.1454 46.1713 53.821C44.8793 52.9473 44.0293 51.4697 44.0293 49.7932C44.0293 47.108 46.2082 44.9313 48.896 44.9313C51.5838 44.9313 53.7627 47.108 53.7627 49.7932C53.7627 51.4697 52.9127 52.9473 51.6206 53.821C51.8062 54.1467 51.9344 54.5038 51.9781 54.8814ZM59.448 33.5527H38.3439V24.9602C38.3439 19.1182 43.0742 14.3354 48.896 14.2236C48.8278 14.2236 48.7595 14.2127 48.69 14.2127H49.1034C49.0338 14.2127 48.9656 14.2222 48.8973 14.2236C54.7191 14.3354 59.4494 19.1182 59.4494 24.9602V33.5527H59.448Z" fill="#CACD17"/>
</g>
<g clip-path="url(#clip1_699_23)">
<path d="M67.461 32.1456H66.5823V23.9947C66.5823 13.6193 58.1805 5.12356 47.8413 4.92456C37.5007 5.12356 29.1003 13.6193 29.1003 23.9947V32.1456H28.2216C23.1489 32.1456 18.9971 36.2919 18.9971 41.361V64.6538C18.9971 69.723 23.1489 73.8693 28.2216 73.8693H67.461C72.5351 73.8693 76.6855 69.7216 76.6855 64.6538V41.361C76.6855 36.2919 72.5337 32.1456 67.461 32.1456ZM50.9234 53.4743L51.6711 59.8832C51.8389 61.3172 51.0448 62.4907 49.9083 62.4907H45.7743C44.6377 62.4907 43.8437 61.3172 44.0115 59.8832L44.7592 53.4743C44.8028 53.0967 44.9311 52.7383 45.1166 52.4138C43.8246 51.5401 42.9746 50.0626 42.9746 48.3861C42.9746 45.7009 45.1535 43.5242 47.8413 43.5242C50.5291 43.5242 52.708 45.7009 52.708 48.3861C52.708 50.0626 51.858 51.5401 50.5659 52.4138C50.7515 52.7396 50.8798 53.0967 50.9234 53.4743ZM58.3934 32.1456H37.2892V23.5531C37.2892 17.7111 42.0195 12.9283 47.8413 12.8165C47.7731 12.8165 47.7049 12.8056 47.6353 12.8056H48.0487C47.9791 12.8056 47.9109 12.8151 47.8427 12.8165C53.6644 12.9283 58.3947 17.7111 58.3947 23.5531V32.1456H58.3934Z" fill="#FBFF18"/>
</g>
</g>
<defs>
<clipPath id="clip0_699_23">
<rect width="57.6884" height="68.9447" fill="white" transform="translate(20.0518 6.33167)"/>
</clipPath>
<clipPath id="clip1_699_23">
<rect width="57.6884" height="68.9447" fill="white" transform="translate(18.9971 4.92456)"/>
</clipPath>
</defs>
</svg>
